<svg width="207" height="26" viewBox="0 0 207 26" fill="none" xmlns="http://www.w3.org/2000/svg">
<path d="M0 25.0351V0.225541H4.96191V20.8062H10.0648V25.0351H0Z" fill="white"/>
<path d="M11.4744 25.0351V0.225541H21.3982V5.0183H16.5209V9.85334H21.2009V14.5192H16.5209V20.2001H21.7225V25.0351H11.4744Z" fill="white"/>
<path d="M29.264 25.2606C26.9992 25.2606 25.364 24.6968 24.3585 23.5691C23.3623 22.4414 22.8643 20.6464 22.8643 18.1843V15.7597H27.7698V18.8609C27.7698 19.4342 27.8544 19.8852 28.0235 20.2141C28.2021 20.5337 28.5075 20.6934 28.9398 20.6934C29.3909 20.6934 29.701 20.5619 29.8701 20.2987C30.0487 20.0356 30.138 19.6033 30.138 19.0019C30.138 18.2407 30.0628 17.6063 29.9124 17.0989C29.7621 16.582 29.4989 16.0933 29.123 15.6328C28.7565 15.163 28.2444 14.6179 27.5865 13.9977L25.3593 11.8832C23.6959 10.3138 22.8643 8.51889 22.8643 6.49841C22.8643 4.38396 23.3529 2.77228 24.3303 1.66337C25.317 0.554456 26.7407 0 28.6015 0C30.8757 0 32.4874 0.606142 33.4365 1.81843C34.3951 3.03071 34.8743 4.87263 34.8743 7.34419H29.8278V5.63853C29.8278 5.30022 29.7292 5.03709 29.5318 4.84914C29.3439 4.66119 29.0854 4.56721 28.7565 4.56721C28.3618 4.56721 28.0705 4.67998 27.8826 4.90553C27.704 5.12167 27.6147 5.4036 27.6147 5.75131C27.6147 6.09902 27.7087 6.47492 27.8966 6.87901C28.0846 7.28311 28.4558 7.74829 29.0103 8.27455L31.8718 11.0233C32.4451 11.5684 32.9713 12.1463 33.4506 12.7572C33.9299 13.3586 34.3152 14.0634 34.6065 14.8716C34.8978 15.6704 35.0435 16.6478 35.0435 17.8037C35.0435 20.1343 34.6112 21.9621 33.7466 23.2871C32.8914 24.6028 31.3972 25.2606 29.264 25.2606Z" fill="white"/>
<path d="M43.4731 25.0351V0.225541H50.0279C51.3999 0.225541 52.4854 0.530962 53.2841 1.1418C54.0923 1.75264 54.6703 2.62192 55.018 3.74963C55.3657 4.87733 55.5396 6.22118 55.5396 7.78118C55.5396 9.28479 55.3939 10.5957 55.1026 11.7141C54.8113 12.823 54.2897 13.6828 53.5379 14.2937C52.7955 14.9045 51.7383 15.2099 50.3662 15.2099H48.3504V25.0351H43.4731ZM48.3504 10.7555H48.6324C49.5533 10.7555 50.1172 10.4971 50.3239 9.98021C50.5307 9.46334 50.634 8.70214 50.634 7.6966C50.634 6.75684 50.5307 6.03323 50.3239 5.52576C50.1266 5.0089 49.652 4.75047 48.9002 4.75047H48.3504V10.7555Z" fill="white"/>
<path d="M57.1184 25.0351V0.225541H67.0422V5.0183H62.1648V9.85334H66.8448V14.5192H62.1648V20.2001H67.3664V25.0351H57.1184Z" fill="white"/>
<path d="M71.1442 25.0351V4.9901H68.1981V0.225541H79.0523V4.9901H76.1061V25.0351H71.1442Z" fill="white"/>
<path d="M80.2082 25.0351V0.225541H85.0009V25.0351H80.2082Z" fill="white"/>
<path d="M89.1029 25.0351V4.9901H86.1568V0.225541H97.011V4.9901H94.0648V25.0351H89.1029Z" fill="white"/>
<path d="M104.285 25.2606C102.02 25.2606 100.385 24.6968 99.3792 23.5691C98.383 22.4414 97.885 20.6464 97.885 18.1843V15.7597H102.79V18.8609C102.79 19.4342 102.875 19.8852 103.044 20.2141C103.223 20.5337 103.528 20.6934 103.96 20.6934C104.412 20.6934 104.722 20.5619 104.891 20.2987C105.069 20.0356 105.159 19.6033 105.159 19.0019C105.159 18.2407 105.083 17.6063 104.933 17.0989C104.783 16.582 104.52 16.0933 104.144 15.6328C103.777 15.163 103.265 14.6179 102.607 13.9977L100.38 11.8832C98.7166 10.3138 97.885 8.51889 97.885 6.49841C97.885 4.38396 98.3736 2.77228 99.351 1.66337C100.338 0.554456 101.761 0 103.622 0C105.896 0 107.508 0.606142 108.457 1.81843C109.416 3.03071 109.895 4.87263 109.895 7.34419H104.849V5.63853C104.849 5.30022 104.75 5.03709 104.553 4.84914C104.365 4.66119 104.106 4.56721 103.777 4.56721C103.383 4.56721 103.091 4.67998 102.903 4.90553C102.725 5.12167 102.635 5.4036 102.635 5.75131C102.635 6.09902 102.729 6.47492 102.917 6.87901C103.105 7.28311 103.477 7.74829 104.031 8.27455L106.893 11.0233C107.466 11.5684 107.992 12.1463 108.471 12.7572C108.951 13.3586 109.336 14.0634 109.627 14.8716C109.919 15.6704 110.064 16.6478 110.064 17.8037C110.064 20.1343 109.632 21.9621 108.767 23.2871C107.912 24.6028 106.418 25.2606 104.285 25.2606Z" fill="white"/>
<path d="M118.494 25.0351V0.225541H125.049C126.421 0.225541 127.506 0.530962 128.305 1.1418C129.113 1.75264 129.691 2.62192 130.039 3.74963C130.386 4.87733 130.56 6.22118 130.56 7.78118C130.56 9.28479 130.415 10.5957 130.123 11.7141C129.832 12.823 129.31 13.6828 128.559 14.2937C127.816 14.9045 126.759 15.2099 125.387 15.2099H123.371V25.0351H118.494ZM123.371 10.7555H123.653C124.574 10.7555 125.138 10.4971 125.345 9.98021C125.551 9.46334 125.655 8.70214 125.655 7.6966C125.655 6.75684 125.551 6.03323 125.345 5.52576C125.147 5.0089 124.673 4.75047 123.921 4.75047H123.371V10.7555Z" fill="white"/>
<path d="M132.139 25.0351V0.225541H137.101V20.8062H142.204V25.0351H132.139Z" fill="white"/>
<path d="M142.937 25.0351L145.333 0.225541H153.749L156.103 25.0351H151.409L151.056 21.0317H148.068L147.758 25.0351H142.937ZM148.42 17.0707H150.676L149.59 4.45444H149.365L148.42 17.0707Z" fill="white"/>
<path d="M159.387 25.0351V4.9901H156.441V0.225541H167.295V4.9901H164.349V25.0351H159.387Z" fill="white"/>
<path d="M174.569 25.2606C172.304 25.2606 170.669 24.6968 169.663 23.5691C168.667 22.4414 168.169 20.6464 168.169 18.1843V15.7597H173.075V18.8609C173.075 19.4342 173.159 19.8852 173.329 20.2141C173.507 20.5337 173.813 20.6934 174.245 20.6934C174.696 20.6934 175.006 20.5619 175.175 20.2987C175.354 20.0356 175.443 19.6033 175.443 19.0019C175.443 18.2407 175.368 17.6063 175.217 17.0989C175.067 16.582 174.804 16.0933 174.428 15.6328C174.062 15.163 173.549 14.6179 172.892 13.9977L170.664 11.8832C169.001 10.3138 168.169 8.51889 168.169 6.49841C168.169 4.38396 168.658 2.77228 169.635 1.66337C170.622 0.554456 172.046 0 173.906 0C176.181 0 177.792 0.606142 178.742 1.81843C179.7 3.03071 180.179 4.87263 180.179 7.34419H175.133V5.63853C175.133 5.30022 175.034 5.03709 174.837 4.84914C174.649 4.66119 174.39 4.56721 174.062 4.56721C173.667 4.56721 173.376 4.67998 173.188 4.90553C173.009 5.12167 172.92 5.4036 172.92 5.75131C172.92 6.09902 173.014 6.47492 173.202 6.87901C173.39 7.28311 173.761 7.74829 174.315 8.27455L177.177 11.0233C177.75 11.5684 178.276 12.1463 178.756 12.7572C179.235 13.3586 179.62 14.0634 179.912 14.8716C180.203 15.6704 180.349 16.6478 180.349 17.8037C180.349 20.1343 179.916 21.9621 179.052 23.2871C178.196 24.6028 176.702 25.2606 174.569 25.2606Z" fill="white"/>
<path d="M207 14.4096C207 20.2779 202.063 25.0351 195.973 25.0351C189.884 25.0351 184.947 20.2779 184.947 14.4096C184.947 8.54129 189.884 3.78409 195.973 3.78409C202.063 3.78409 207 8.54129 207 14.4096Z" fill="white"/>
<path fill-rule="evenodd" clip-rule="evenodd" d="M195.973 23.4312C201.234 23.4312 205.396 19.3366 205.396 14.4096C205.396 9.48255 201.234 5.38794 195.973 5.38794C190.713 5.38794 186.551 9.48255 186.551 14.4096C186.551 19.3366 190.713 23.4312 195.973 23.4312ZM195.973 25.0351C202.063 25.0351 207 20.2779 207 14.4096C207 8.54129 202.063 3.78409 195.973 3.78409C189.884 3.78409 184.947 8.54129 184.947 14.4096C184.947 20.2779 189.884 25.0351 195.973 25.0351Z" fill="black"/>
<path d="M203.391 14.4096C203.391 18.5063 200.07 21.8274 195.974 21.8274C191.877 21.8274 188.556 18.5063 188.556 14.4096C188.556 10.3129 191.877 6.99179 195.974 6.99179C200.07 6.99179 203.391 10.3129 203.391 14.4096Z" fill="white"/>
<path fill-rule="evenodd" clip-rule="evenodd" d="M195.974 20.2236C199.184 20.2236 201.787 17.6206 201.787 14.4096C201.787 11.1986 199.184 8.59564 195.974 8.59564C192.763 8.59564 190.16 11.1986 190.16 14.4096C190.16 17.6206 192.763 20.2236 195.974 20.2236ZM195.974 21.8274C200.07 21.8274 203.391 18.5063 203.391 14.4096C203.391 10.3129 200.07 6.99179 195.974 6.99179C191.877 6.99179 188.556 10.3129 188.556 14.4096C188.556 18.5063 191.877 21.8274 195.974 21.8274Z" fill="black"/>
</svg>
